<svg width="577" height="89" viewBox="0 0 577 89" fill="none" xmlns="http://www.w3.org/2000/svg">
<g clip-path="url(#clip0_512_780)">
<path d="M0 0.527344V3.04449C8.51036 3.76368 10.9076 4.72259 10.9076 11.7946V76.5213C10.9076 83.5933 8.51036 84.5522 0 85.2714V87.7885H34.8805V85.2714C25.7708 84.5522 23.1338 83.5933 23.1338 76.5213V46.4354H37.3977C45.7882 46.4354 49.5039 47.3943 51.5416 54.3464L52.3807 57.8225H55.3773V30.7331H52.3807L51.5416 34.2092C49.5039 41.1613 45.7882 42.1203 37.3977 42.1203H23.1338V4.84246H43.0313C51.9012 4.84246 57.8944 5.68151 61.4904 15.5104L63.8877 22.2228H66.7644V0.527344H0Z" fill="#A13B0A"/>
<path d="M119.798 87.7885H153.959V85.2714C145.329 84.5522 142.932 83.5933 142.932 76.5213V11.7946C142.932 4.72259 145.329 3.76368 153.959 3.04449V0.527344H119.798V3.04449C128.308 3.76368 130.705 4.72259 130.705 11.7946V76.5213C130.705 83.5933 128.308 84.5522 119.798 85.2714V87.7885Z" fill="#A13B0A"/>
<path d="M313.032 74.6035L293.734 46.6751C305.001 43.0792 313.991 35.4079 313.991 22.2228C313.991 7.47947 302.005 0.527344 280.429 0.527344H245.549V3.04449C254.059 3.76368 256.456 4.72259 256.456 11.7946V76.5213C256.456 83.5933 254.059 84.5522 245.549 85.2714V87.7885H279.111V85.2714C271.08 84.5522 268.682 83.5933 268.682 76.5213V48.9525H277.193C280.669 48.9525 282.227 49.7916 283.665 51.9491L301.525 79.2782C306.32 86.7098 310.635 88.6276 317.947 88.6276C320.704 88.6276 324.659 88.3879 327.536 87.7885V85.2714C322.502 85.2714 318.067 81.7953 313.032 74.6035ZM279.111 44.8771C276.594 44.8771 271.439 44.5175 268.682 43.9182V4.84246H276.713C292.535 4.84246 301.046 11.435 301.046 24.0207C301.046 36.6065 293.854 44.8771 279.111 44.8771Z" fill="#A13B0A"/>
<path d="M439.702 62.9766L435.986 72.8055C432.39 82.3947 426.637 83.4734 409.616 83.4734C402.065 83.4734 398.109 83.2337 394.274 82.2748V44.997H409.976C418.366 44.997 422.082 45.9559 424.12 52.908L424.959 56.3841H427.955V29.2948H424.959L424.12 32.7708C422.082 39.723 418.366 40.6819 409.976 40.6819H394.274V4.84246H416.089C425.079 4.84246 431.072 5.68151 434.548 15.5104L436.945 22.2228H439.942V0.527344H371.14V3.04449C379.65 3.76368 382.047 4.72259 382.047 11.7946V76.5213C382.047 83.5933 379.65 84.5522 371.14 85.2714V87.7885H440.901L442.699 62.9766H439.702Z" fill="#A13B0A"/>
<path d="M566.698 75.8021L537.085 0.527344H529.414L499.927 75.3227C497.65 81.196 495.612 84.4323 489.259 85.2714V87.7885H517.428V85.2714C507.359 84.4323 503.523 81.3159 506.52 73.7644L511.794 60.2198H547.513L553.507 75.8021C556.024 82.3947 554.226 84.4323 544.157 85.2714V87.7885H577V85.2714C570.647 84.4323 568.969 81.5556 566.692 75.8021H566.698ZM513.479 55.7848L529.66 14.3117L545.722 55.7848H513.479Z" fill="#A13B0A"/>
<path d="M206.06 46.5019C206.06 50.1777 203.077 53.161 199.401 53.161C195.725 53.161 192.742 50.1777 192.742 46.5019C192.742 42.8261 195.725 39.8428 199.401 39.8428C203.077 39.8428 206.06 42.8261 206.06 46.5019Z" fill="#A13B0A"/>
</g>
<defs>
<clipPath id="clip0_512_780">
<rect width="577" height="88.1003" fill="white" transform="translate(0 0.527344)"/>
</clipPath>
</defs>
</svg>
