<svg width="363" height="89" viewBox="0 0 363 89" fill="none" xmlns="http://www.w3.org/2000/svg">
<path d="M61.408 47.576C63.968 49.7093 65.8453 51.9707 67.04 54.36C68.32 56.664 68.96 59.4373 68.96 62.68C68.96 67.1173 67.9787 70.9573 66.016 74.2C64.1387 77.3573 61.6213 80.0027 58.464 82.136C55.392 84.184 51.8933 85.72 47.968 86.744C44.128 87.6827 40.2453 88.152 36.32 88.152C31.712 88.152 27.36 87.5547 23.264 86.36C19.2533 85.08 15.6267 83.2453 12.384 80.856C9.22667 78.4667 6.58133 75.5653 4.448 72.152C2.31467 68.7387 0.906667 64.856 0.224 60.504H15.712C16.0533 62.8933 16.9067 64.984 18.272 66.776C19.6373 68.568 21.2587 70.0613 23.136 71.256C25.0987 72.4507 27.1893 73.3467 29.408 73.944C31.712 74.5413 33.9307 74.84 36.064 74.84C37.7707 74.84 39.648 74.6693 41.696 74.328C43.8293 73.9867 45.792 73.3893 47.584 72.536C49.4613 71.6827 50.9973 70.5307 52.192 69.08C53.472 67.6293 54.112 65.7947 54.112 63.576C54.112 62.808 53.9413 61.9547 53.6 61.016C53.344 59.992 52.7467 59.0107 51.808 58.072C50.9547 57.048 49.6747 56.1093 47.968 55.256C46.2613 54.3173 43.9573 53.5067 41.056 52.824L23.904 48.728C21.6853 48.216 19.424 47.576 17.12 46.808C14.816 46.04 12.64 44.8027 10.592 43.096C6.06933 39.3413 3.808 34.1787 3.808 27.608C3.808 23.3413 4.66133 19.672 6.368 16.6C8.07467 13.4427 10.2933 10.8827 13.024 8.92C15.84 6.872 19.04 5.37866 22.624 4.43999C26.208 3.416 29.8773 2.904 33.632 2.904C37.6427 2.904 41.696 3.45866 45.792 4.56799C49.888 5.67733 53.6427 7.384 57.056 9.688C60.4693 11.992 63.328 14.936 65.632 18.52C67.936 22.0187 69.2587 26.2 69.6 31.064H53.728C53.728 28.4187 53.0027 26.1573 51.552 24.28C50.1867 22.4027 48.48 20.8667 46.432 19.672C44.384 18.392 42.1653 17.496 39.776 16.984C37.3867 16.3867 35.2107 16.088 33.248 16.088C28.7253 16.088 25.44 16.728 23.392 18.008C21.4293 19.2027 20.1067 20.3973 19.424 21.592C18.7413 22.7013 18.3573 24.152 18.272 25.944C18.1867 27.6507 18.3573 29.016 18.784 30.04C19.552 32.0027 20.6187 33.2827 21.984 33.88C23.4347 34.4773 25.1413 35.1173 27.104 35.8C29.2373 36.312 31.84 36.9093 34.912 37.592C37.984 38.2747 41.1413 39.0853 44.384 40.024C47.712 40.9627 50.8693 42.0293 53.856 43.224C56.8427 44.4187 59.36 45.8693 61.408 47.576ZM97.545 2.904V87H83.209L83.593 2.904H97.545ZM124.367 44.248C124.111 51.5013 125.519 57.4747 128.591 62.168C131.663 66.776 135.503 70.0613 140.111 72.024C143.524 73.4747 146.938 74.2 150.351 74.2C153.252 74.2 156.026 73.7307 158.671 72.792C161.402 71.768 163.791 70.3173 165.839 68.44C167.972 66.4773 169.679 64.088 170.959 61.272C172.239 58.456 172.879 55.1707 172.879 51.416H187.471C187.471 56.9627 186.575 62.04 184.783 66.648C183.076 71.1707 180.602 75.0533 177.359 78.296C174.202 81.4533 170.362 83.928 165.839 85.72C161.316 87.4267 156.239 88.28 150.607 88.28C141.562 88.28 134.01 86.1467 127.951 81.88C121.978 77.528 117.498 72.152 114.511 65.752C111.524 59.2667 110.031 52.312 110.031 44.888C110.031 37.3787 111.524 30.4667 114.511 24.152C117.583 17.752 122.106 12.504 128.079 8.408C134.138 4.22666 141.647 2.26399 150.607 2.52C154.703 2.60533 158.756 3.24533 162.767 4.43999C166.778 5.54933 170.404 7.256 173.647 9.56C176.975 11.7787 179.748 14.552 181.967 17.88C184.186 21.1227 185.551 25.0053 186.063 29.528L186.191 30.68H171.343C170.148 25.7307 167.631 22.0187 163.791 19.544C160.036 17.0693 155.855 15.832 151.247 15.832C147.322 15.832 143.738 16.6 140.495 18.136C137.252 19.672 134.436 21.72 132.047 24.28C129.743 26.84 127.908 29.8693 126.543 33.368C125.263 36.7813 124.538 40.408 124.367 44.248ZM218.677 2.904L218.549 36.952L259.893 2.904H281.397L244.021 32.984L276.661 87H258.997L234.549 41.688L218.421 56.024L218.549 86.872H203.701V2.904H218.677ZM276.965 44.632C276.965 38.232 277.946 32.344 279.909 26.968C281.957 21.5067 284.816 16.856 288.485 13.016C292.24 9.09067 296.72 6.06133 301.925 3.92799C307.216 1.70933 313.146 0.599998 319.717 0.599998C326.202 0.599998 332.09 1.70933 337.381 3.92799C342.672 6.14666 347.152 9.21866 350.821 13.144C354.576 16.984 357.434 21.592 359.397 26.968C361.445 32.344 362.469 38.232 362.469 44.632C362.469 51.032 361.445 56.92 359.397 62.296C357.434 67.5867 354.576 72.1947 350.821 76.12C347.152 80.0453 342.672 83.1173 337.381 85.336C332.09 87.4693 326.202 88.536 319.717 88.536C313.232 88.536 307.344 87.4693 302.053 85.336C296.762 83.1173 292.24 80.0453 288.485 76.12C284.816 72.1947 281.957 67.5867 279.909 62.296C277.946 56.92 276.965 51.032 276.965 44.632ZM319.717 75.48C324.325 75.48 328.336 74.712 331.749 73.176C335.248 71.5547 338.149 69.3787 340.453 66.648C342.757 63.832 344.464 60.5467 345.573 56.792C346.768 53.0373 347.365 48.984 347.365 44.632C347.365 40.28 346.768 36.2267 345.573 32.472C344.464 28.7173 342.757 25.4747 340.453 22.744C338.149 19.928 335.248 17.752 331.749 16.216C328.336 14.5947 324.325 13.784 319.717 13.784C315.194 13.784 311.184 14.5947 307.685 16.216C304.272 17.8373 301.413 20.056 299.109 22.872C296.805 25.6027 295.056 28.8453 293.861 32.6C292.666 36.3547 292.069 40.3653 292.069 44.632C292.069 48.984 292.624 53.0373 293.733 56.792C294.928 60.5467 296.677 63.832 298.981 66.648C301.285 69.3787 304.144 71.5547 307.557 73.176C311.056 74.712 315.109 75.48 319.717 75.48Z" fill="#5FCE00"/>
</svg>
