<svg width="675" height="101" viewBox="0 0 675 101" fill="none" xmlns="http://www.w3.org/2000/svg">
<g clip-path="url(#clip0_514_17613)">
<path d="M496.701 9.89138C496.688 3.88035 497.326 3.15805 503.357 2.20314C513.948 0.525927 524.503 -1.15128 535.241 1.10132C544.46 3.03562 553.384 5.64326 559.059 13.8579C566.304 24.3252 568.462 36.0412 566.022 48.4795C564.943 53.9641 562.774 59.057 559.059 63.452C558.422 64.211 558.606 66.2433 559.145 67.3206C563.828 76.5269 568.621 85.6965 573.537 94.7803C574.75 97.0085 573.855 98.245 571.968 98.3429C566.096 98.6857 560.187 98.8938 554.315 98.5755C552.991 98.502 551.435 96.2739 550.613 94.7069C547.549 88.9162 544.705 83.0031 541.885 77.09C540.88 74.9966 539.814 74.2865 537.252 74.8252C532.483 75.8168 527.567 76.4167 522.701 76.5759C519.452 76.6738 518.435 77.7267 518.472 80.8485C518.533 86.076 518.177 91.3035 518.165 96.531C518.165 98.8081 517.295 99.7385 515.002 99.7018C510.209 99.6284 505.416 99.6528 500.623 99.714C498.686 99.7385 497.718 98.9428 497.608 97.0207C497.51 95.0252 497.265 93.0297 497.252 91.0342M525.704 17.4082C523.608 17.6408 521.438 17.6286 519.44 18.204C518.459 18.4856 517.111 19.869 517.111 20.7504C517.197 32.6378 517.454 44.5252 517.846 56.4004C517.871 57.2328 519.379 58.6652 520.261 58.7142C527.175 59.1304 533.844 57.9551 539.814 54.2579C547.634 49.4222 550.969 36.6533 546.151 29.161C541.444 21.8522 534.996 17.0899 525.704 17.396V17.4082Z" fill="#E50809"/>
<path d="M126.507 77.0781C123.05 77.0781 119.594 77.1271 116.149 77.0659C113.832 77.0169 112.876 78.0086 113.195 80.3224C113.795 84.6195 114.273 88.9288 114.899 93.2136C115.45 96.9598 114.543 98.2575 110.829 98.331C106.6 98.4167 102.346 98.1841 98.129 98.4167C95.236 98.5758 94.4882 97.1802 94.2308 94.7195C93.1766 84.7664 92.0611 74.8378 90.9333 64.8969C88.8248 46.3496 86.7041 27.7901 84.5221 9.24286C83.995 4.8111 84.4486 4.12552 88.9474 4.11328C92.9559 4.11328 96.9767 4.22346 100.985 4.17449C103.559 4.13777 104.896 5.22734 105.178 7.82274C105.778 13.2339 106.551 18.6328 107.151 24.0562C108.242 33.997 109.333 43.9501 110.253 53.9032C110.535 56.9761 111.736 58.1024 114.899 58.0289C122.805 57.8453 130.724 57.8453 138.631 58.0656C141.794 58.1513 143.35 57.3066 143.694 53.9889C144.92 42.2729 146.329 30.5692 147.653 18.8654C148.07 15.2172 148.462 11.5689 148.842 7.92068C149.087 5.58237 150.252 4.24795 152.716 4.24795C157.399 4.23571 162.081 4.27243 166.764 4.17449C169.302 4.11328 169.436 5.75377 169.277 7.50443C168.615 14.8132 167.916 22.1219 167.132 29.4184C165.44 45.2233 163.712 61.0283 161.971 76.821C161.297 83.0035 160.5 89.1859 159.875 95.3806C159.642 97.6087 158.637 98.4412 156.406 98.3922C151.956 98.282 147.494 98.2943 143.032 98.38C140.188 98.4289 138.876 97.3026 139.219 94.3767C139.746 89.7368 140.114 85.0847 140.703 80.4693C140.997 78.1555 140.237 77.1149 137.883 77.1393C134.095 77.1761 130.307 77.1393 126.52 77.1393C126.52 77.1271 126.52 77.1026 126.52 77.0904L126.507 77.0781Z" fill="#E50809"/>
<path d="M471.914 98.8947H471.24C464.882 98.8947 460.726 95.8178 458.773 89.664C457.486 85.6484 456.064 81.6697 454.826 77.6297C454.066 75.1567 452.533 73.8957 449.971 73.8835C441.39 73.859 432.809 73.9202 424.229 73.8345C421.899 73.81 421.262 75.2791 420.576 77.0053C417.805 84.0324 414.912 90.9984 412.228 98.0623C411.369 100.315 410.119 101.111 407.741 100.988C403.855 100.78 399.945 100.915 396.046 100.817C391.621 100.694 390.334 99.1641 391.744 94.8548C394.894 85.1465 398.179 75.475 401.734 65.9014C405.865 54.7608 410.315 43.7426 414.642 32.6755C417.548 25.2321 420.416 17.7642 423.395 10.3453C425.001 6.35427 428.029 4.16287 432.417 4.13839C437.1 4.1139 441.77 4.17511 446.453 4.22408C449.616 4.26081 451.724 5.86457 452.791 8.76602C459.214 26.3951 465.613 44.0487 472.024 61.69C475.432 71.08 478.815 80.4821 482.285 89.8598C485.006 97.2298 483.927 98.8948 476.266 98.907C474.819 98.907 473.373 98.907 471.926 98.907L471.914 98.8947ZM437.909 57.1236C440.581 57.1236 443.254 57.0134 445.914 57.1481C448.574 57.2828 449.358 56.1932 448.611 53.7447C446.024 45.2729 443.474 36.7767 440.802 28.3294C440.557 27.5459 439.527 26.5298 438.828 26.5053C438.13 26.4808 436.99 27.4112 436.72 28.1703C433.57 36.8012 430.554 45.4933 427.502 54.1609C426.693 56.4503 427.722 57.1971 429.916 57.1358C432.589 57.0624 435.261 57.1236 437.921 57.1114L437.909 57.1236Z" fill="#E50809"/>
<path d="M663.551 98.8937C653.204 99.1263 653.266 99.1019 650.373 89.7486C649.061 85.5128 647.418 81.3748 645.96 77.1757C645.102 74.715 643.336 73.8457 640.799 73.858C632.439 73.9192 624.078 73.76 615.73 73.9926C614.468 74.0294 612.617 75.3516 612.126 76.5391C609.528 82.795 607.235 89.1733 604.918 95.5516C603.227 100.228 602.234 100.975 597.196 100.914C593.739 100.877 590.282 100.914 586.837 100.791C583.16 100.644 581.689 98.8325 582.89 95.3557C587.033 83.4071 591.226 71.4707 595.675 59.6323C601.817 43.3131 608.265 27.1042 614.468 10.7973C616.159 6.35326 619.31 4.24756 623.858 4.17411C628.761 4.10065 633.664 4.27205 638.568 4.35774C641.24 4.40671 642.871 5.83908 643.79 8.28756C647.247 17.5428 650.777 26.7736 654.173 36.0534C659.101 49.5078 663.967 62.9867 668.81 76.4656C670.759 81.9013 672.708 87.3491 674.461 92.846C675.834 97.1308 674.718 98.5632 670.195 98.8203C668.969 98.8937 667.743 98.8815 666.517 98.8937C665.291 98.8937 664.065 98.8937 663.575 98.8937H663.551ZM629.215 57.0981C632.108 57.0981 635.001 57.0981 637.894 57.0981C639.598 57.0981 640.492 56.3023 639.99 54.6006C637.477 45.982 634.939 37.3633 632.279 28.7814C632.01 27.8999 630.624 26.5777 630.11 26.7247C629.141 27.0062 628.038 28.0468 627.682 29.0262C624.716 37.2654 621.909 45.5657 619.077 53.8539C618.292 56.1187 619.016 57.2205 621.541 57.1226C624.091 57.0247 626.653 57.0981 629.215 57.0981Z" fill="#E50809"/>
<path d="M337.083 97.5097C322.986 94.3879 314.822 84.3124 309.698 71.519C303.703 56.5588 304.488 41.7822 313.988 28.6828C322.3 17.2116 334.031 9.68255 348.042 6.63419C355.52 5.00595 363.255 4.62643 370.868 3.59807C373.184 3.27976 373.785 4.3571 373.834 6.40158C373.92 10.6252 374.19 14.8489 374.288 19.0725C374.373 23.0635 373.626 23.847 369.629 23.6144C360.668 23.088 352.149 24.5693 343.923 28.2543C333.859 32.7595 326.48 46.4833 328.466 57.5382C330.746 70.2336 340.467 78.7053 353.277 78.9869C359.958 79.1338 366.651 79.1216 373.331 78.9869C376.212 78.9257 377.352 79.9541 377.254 82.8555C377.107 87.1893 377.132 91.5354 377.279 95.857C377.365 98.3177 376.323 99.3461 373.981 99.3461C365.976 99.395 344.831 99.2236 337.071 97.4975L337.083 97.5097Z" fill="#E50809"/>
<path d="M35.5005 97.2784C21.4401 95.3563 11.8907 87.3988 5.68793 74.7891C-2.72138 57.6742 -2.01039 41.2448 9.18159 25.7337C15.2618 17.2986 24.284 12.4139 33.5514 8.12907C43.5175 3.53816 54.2805 3.26883 64.9453 2.58325C65.7421 2.53429 67.299 3.96665 67.3725 4.79913C67.7403 9.56144 67.8016 14.3482 67.8751 19.135C67.9241 22.2691 65.9138 22.6486 63.3517 22.465C53.4469 21.7549 44.0079 23.3831 35.3412 28.4148C25.706 34.0096 20.8516 44.9665 22.8007 57.5028C24.3821 67.664 30.9036 73.9199 40.4039 76.8703C43.8117 77.9354 47.6732 77.666 51.3384 77.7517C56.7935 77.8742 62.2607 77.8252 67.7158 77.7517C70.0816 77.7272 71.2584 78.8413 71.3443 81.1184C71.5036 85.8929 71.5772 90.6797 71.761 95.4665C71.8346 97.3886 70.9275 98.0497 69.1622 98.0497C64.3692 98.0374 41.8504 98.1476 35.476 97.2662L35.5005 97.2784Z" fill="#E50809"/>
<path d="M255.417 93.337C242.141 89.4317 235.534 78.6461 230.582 66.3914C223.778 49.5581 229.049 29.554 242.043 18.2297C253.26 8.46026 266.217 2.44923 281.258 1.43311C285.034 1.17602 288.822 1.00462 292.597 0.63735C294.485 0.453713 295.196 1.04135 295.233 2.97565C295.331 7.41965 295.686 11.8637 295.821 16.3077C295.919 19.8212 294.975 20.7272 291.469 20.4089C280.756 19.4417 270.789 22.0126 261.694 27.3993C255.221 31.2312 251.58 37.7074 250.477 44.8815C248.491 57.7483 252.831 69.0725 266.229 74.2388C270.336 75.8181 275.178 75.7201 279.714 75.9283C284.715 76.1609 289.741 75.9283 294.755 75.7446C297.586 75.6344 298.861 76.6628 298.776 79.601C298.641 83.8246 298.579 88.0605 298.8 92.2841C298.947 95.308 297.525 96.2629 294.853 96.2629C271.488 96.2262 263.974 95.8344 255.43 93.3248L255.417 93.337Z" fill="#E50809"/>
<path d="M209.203 95.4895C209.203 99.7621 208.014 100.95 203.834 100.717C199.605 100.484 195.388 100.08 191.171 99.7009C188.719 99.4805 187.223 98.0482 187.064 95.6486C186.843 92.4534 186.856 89.2336 186.868 86.0261C186.905 61.5535 186.917 37.0809 187.027 12.6205C187.076 2.30017 186.794 4.52829 195.167 4.30793C198.17 4.23448 201.186 4.25896 204.189 4.30793C208.087 4.38139 208.884 5.1649 208.884 9.07023C208.909 23.5285 209.203 81.1414 209.178 95.4895H209.203Z" fill="#E50809"/>
</g>
<defs>
<clipPath id="clip0_514_17613">
<rect width="675" height="101" fill="white"/>
</clipPath>
</defs>
</svg>
